<?xml version="1.0" encoding="iso-8859-1"?>
<!-- Generator: Adobe Illustrator 19.0.0, SVG Export Plug-In . SVG Version: 6.00 Build 0)  -->
<svg version="1.1" id="Capa_1" xmlns="http://www.w3.org/2000/svg" xmlns:xlink="http://www.w3.org/1999/xlink" x="0px" y="0px"
	 viewBox="0 0 512.677 512.677" style="enable-background:new 0 0 512.677 512.677;" xml:space="preserve">
<g>
	<path style="fill:#FFFFFF;" d="M504.746,427.86H7.931C3.55,427.86,0,431.41,0,435.791s3.55,7.931,7.931,7.931h496.815
		c4.381,0,7.931-3.55,7.931-7.931S509.127,427.86,504.746,427.86z"/>
	<path style="fill:#FFFFFF;" d="M38.018,194.952c5.882,4.774,24.891,14.37,76.544,39.61c17.772,8.683,36.149,17.663,50.06,24.729
		c0.574,0.291,1.182,0.512,1.809,0.656c29.266,6.758,59.053,13.869,87.858,20.747c57.614,13.756,117.191,27.982,175.725,40.107
		c0.126,0.026,0.251,0.047,0.379,0.067c3.603,0.566,7.461,0.836,11.426,0.836c21.521,0,46.064-7.945,48.521-19.579
		c4.539-21.483-34.532-51.494-82.051-62.98c-24.388-5.634-69.792-16.002-92.515-21.097
		c-13.696-8.275-105.064-114.65-125.304-139.133c-1.124-1.359-2.667-2.304-4.386-2.689c-6.067-1.352-10.683-2.441-15.308-3.532
		c-4.632-1.093-9.273-2.188-15.352-3.545c-3.097-0.701-6.282,0.517-8.142,3.073c-1.858,2.556-2.024,5.969-0.421,8.692
		c10,16.976,39.397,68.111,65.34,114.071c-1.718-0.381-3.355-0.743-4.936-1.093c-13.964-3.087-23.47-5.191-43.811-9.882
		l-38.588-23.486L77.004,80.171c-1.126-1.889-2.984-3.226-5.133-3.692l-21.339-4.63c-2.373-0.508-4.854,0.087-6.73,1.634
		c-1.874,1.546-2.934,3.867-2.88,6.297l1.758,76.787c-10.452-1.077-16.705,3.421-19.28,8.978
		C18.916,175.218,25.056,187.48,38.018,194.952z M48.022,174.154c2.464,0.936,5.237,0.59,7.399-0.934
		c2.157-1.523,3.413-4.02,3.353-6.659l-1.765-77.076l8.131,1.765l47.107,79.085c0.663,1.111,1.587,2.044,2.69,2.716l41.362,25.177
		c0.725,0.441,1.514,0.763,2.341,0.953c21.273,4.911,30.907,7.042,45.198,10.202c6.133,1.357,13.124,2.903,22.268,4.942
		c3.06,0.676,6.224-0.499,8.089-3.009c1.867-2.512,2.084-5.887,0.55-8.616c-22.235-39.599-49.326-86.94-64.958-113.94
		c3.138,0.738,6.399,1.499,10.208,2.359c7.665,9.127,34.543,40.79,61.366,71.273c60.548,68.807,66.393,70.116,70.262,70.983
		c22.089,4.949,68.989,15.658,93.016,21.206c45.872,11.089,69.371,35.694,70.209,43.317c-4.632,3.811-23.836,10.096-41.814,7.33
		c-58.239-12.067-117.626-26.248-175.063-39.962c-28.525-6.811-58.011-13.851-87.031-20.556
		c-13.909-7.049-31.954-15.867-49.415-24.399c-28.776-14.062-68.111-33.28-73.217-37.382c-0.552-0.574-1.188-1.062-1.887-1.446
		c-6.357-3.505-8.346-7.561-8.566-9.031C39.007,172.103,42.229,171.946,48.022,174.154z"/>
</g>
</svg>
